<?xml version="1.0" encoding="UTF-8" standalone="no"?>
<!-- Created with Inkscape (http://www.inkscape.org/) -->

<svg
   width="320"
   height="320"
   viewBox="0 0 84.666665 84.666667"
   version="1.1"
   id="svg1"
   inkscape:version="1.3.2 (091e20e, 2023-11-25, custom)"
   sodipodi:docname="poetryAILogo.svg"
   inkscape:export-filename="poetryAILogo.png"
   inkscape:export-xdpi="27.367004"
   inkscape:export-ydpi="27.367004"
   xmlns:inkscape="http://www.inkscape.org/namespaces/inkscape"
   xmlns:sodipodi="http://sodipodi.sourceforge.net/DTD/sodipodi-0.dtd"
   xmlns="http://www.w3.org/2000/svg"
   xmlns:svg="http://www.w3.org/2000/svg">
  <sodipodi:namedview
     id="namedview1"
     pagecolor="#ffffff"
     bordercolor="#666666"
     borderopacity="1.0"
     inkscape:showpageshadow="2"
     inkscape:pageopacity="0.0"
     inkscape:pagecheckerboard="true"
     inkscape:deskcolor="#d1d1d1"
     inkscape:document-units="px"
     inkscape:zoom="1.9628562"
     inkscape:cx="113.10049"
     inkscape:cy="184.67986"
     inkscape:window-width="1920"
     inkscape:window-height="1017"
     inkscape:window-x="1912"
     inkscape:window-y="-8"
     inkscape:window-maximized="1"
     inkscape:current-layer="layer1" />
  <defs
     id="defs1" />
  <g
     inkscape:label="Layer 1"
     inkscape:groupmode="layer"
     id="layer1">
    <path
       sodipodi:type="star"
       style="display:inline;fill:#39aea9;fill-opacity:1;stroke-width:0.0513292"
       id="path2"
       inkscape:flatsided="false"
       sodipodi:sides="2"
       sodipodi:cx="17.792948"
       sodipodi:cy="22.645571"
       sodipodi:r1="18.320726"
       sodipodi:r2="8.6107416"
       sodipodi:arg1="0.96850898"
       sodipodi:arg2="2.5393053"
       inkscape:rounded="0.11"
       inkscape:randomized="0"
       d="M 28.172167,37.742617 C 26.337215,39.004147 11.958865,29.358756 10.697336,27.523804 9.4358061,25.688852 5.5787761,8.8100537 7.4137282,7.5485241 9.2486803,6.2869946 23.62703,15.932385 24.88856,17.767337 c 1.261529,1.834952 5.118559,18.713751 3.283607,19.97528 z"
       inkscape:transform-center-x="0.66078529"
       inkscape:transform-center-y="-0.92567366"
       transform="matrix(1.5419034,0.74379715,-1.0553738,1.221724,38.911299,6.3552545)" />
    <path
       sodipodi:type="star"
       style="fill:#39aea9;fill-opacity:1;stroke-width:0.0513292"
       id="path26"
       inkscape:flatsided="false"
       sodipodi:sides="2"
       sodipodi:cx="43.269218"
       sodipodi:cy="0.13479505"
       sodipodi:r1="28.389006"
       sodipodi:r2="13.342833"
       sodipodi:arg1="1.5707963"
       sodipodi:arg2="3.1415926"
       inkscape:rounded="0.11"
       inkscape:randomized="0"
       d="m 43.269219,28.523801 c -3.450507,0 -13.342833,-24.9384983 -13.342833,-28.38900523 0,-3.45050707 9.892325,-28.38900577 13.342832,-28.38900677 3.450507,0 13.342833,24.9384984 13.342833,28.38900534 0,3.45050706 -9.892325,28.38900666 -13.342832,28.38900666 z"
       transform="translate(-0.93588544,42.198538)" />
    <g
       id="g6"
       transform="matrix(1,0,0.00398032,0.75725221,13.27542,32.86806)"
       style="display:inline">
      <path
         sodipodi:type="star"
         style="fill:#557b83;fill-opacity:1;stroke-width:0.0513292"
         id="path5"
         inkscape:flatsided="false"
         sodipodi:sides="2"
         sodipodi:cx="38.551388"
         sodipodi:cy="10.244425"
         sodipodi:r1="21.246798"
         sodipodi:r2="0.63740396"
         sodipodi:arg1="1.4818596"
         sodipodi:arg2="3.0526559"
         inkscape:rounded="0.02"
         inkscape:randomized="0"
         d="M 40.438518,31.407249 C 40.015071,31.445009 37.954263,10.724486 37.916503,10.301039 37.878743,9.8775918 36.24081,-10.88064 36.664257,-10.9184 c 0.423447,-0.03776 2.484256,20.682764 2.522016,21.106211 0.03776,0.423447 1.675692,21.181679 1.252245,21.219438 z"
         transform="matrix(-1,0,0,1,69.349952,19.866476)" />
      <path
         sodipodi:type="star"
         style="fill:#e5efc1;fill-opacity:1;stroke-width:0.0513292"
         id="path6"
         inkscape:flatsided="false"
         sodipodi:sides="2"
         sodipodi:cx="38.551388"
         sodipodi:cy="10.244425"
         sodipodi:r1="21.246798"
         sodipodi:r2="0.63740396"
         sodipodi:arg1="1.4818596"
         sodipodi:arg2="3.0526559"
         inkscape:rounded="0.02"
         inkscape:randomized="0"
         d="M 40.438518,31.407249 C 40.015071,31.445009 37.954263,10.724486 37.916503,10.301039 37.878743,9.8775918 36.24081,-10.88064 36.664257,-10.9184 c 0.423447,-0.03776 2.484256,20.682764 2.522016,21.106211 0.03776,0.423447 1.675692,21.181679 1.252245,21.219438 z"
         transform="matrix(-1,0,0.08548646,0.70127692,66.667164,29.247509)" />
      <path
         sodipodi:type="star"
         style="fill:#557b83;fill-opacity:1;stroke-width:0.0513292"
         id="path4"
         inkscape:flatsided="false"
         sodipodi:sides="2"
         sodipodi:cx="38.551388"
         sodipodi:cy="10.244425"
         sodipodi:r1="21.246798"
         sodipodi:r2="0.63740396"
         sodipodi:arg1="1.4818596"
         sodipodi:arg2="3.0526559"
         inkscape:rounded="0.02"
         inkscape:randomized="0"
         d="M 40.438518,31.407249 C 40.015071,31.445009 37.954263,10.724486 37.916503,10.301039 37.878743,9.8775918 36.24081,-10.88064 36.664257,-10.9184 c 0.423447,-0.03776 2.484256,20.682764 2.522016,21.106211 0.03776,0.423447 1.675692,21.181679 1.252245,21.219438 z"
         transform="translate(-11.522641,19.866517)" />
    </g>
    <g
       id="g22"
       transform="matrix(-0.82623079,0.50169718,0.62111783,0.94491,24.842247,-2.1308115)"
       style="display:inline">
      <path
         sodipodi:type="star"
         style="display:inline;fill:#39aea9;fill-opacity:1;stroke-width:0.0513292"
         id="path21"
         inkscape:flatsided="false"
         sodipodi:sides="2"
         sodipodi:cx="17.792948"
         sodipodi:cy="22.645571"
         sodipodi:r1="18.320726"
         sodipodi:r2="8.6107416"
         sodipodi:arg1="0.96850898"
         sodipodi:arg2="2.5393053"
         inkscape:rounded="0.11"
         inkscape:randomized="0"
         d="M 28.172167,37.742617 C 26.337215,39.004147 11.958865,29.358756 10.697336,27.523804 9.4358061,25.688852 5.5787761,8.8100537 7.4137282,7.5485241 9.2486803,6.2869946 23.62703,15.932385 24.88856,17.767337 c 1.261529,1.834952 5.118559,18.713751 3.283607,19.97528 z"
         inkscape:transform-center-x="-0.18536941"
         inkscape:transform-center-y="-5.0902404"
         transform="matrix(-1.4131653,0.75031595,0.92891616,1.235674,32.877604,-14.480927)" />
      <path
         sodipodi:type="star"
         style="fill:#557b83;fill-opacity:1;stroke-width:0.0513292"
         id="path18"
         inkscape:flatsided="false"
         sodipodi:sides="2"
         sodipodi:cx="38.551388"
         sodipodi:cy="10.244425"
         sodipodi:r1="21.246798"
         sodipodi:r2="1.0623399"
         sodipodi:arg1="1.4818596"
         sodipodi:arg2="3.0526559"
         inkscape:rounded="0.02"
         inkscape:randomized="0"
         d="m 40.438518,31.407249 c -0.423785,0.03779 -2.907482,-20.644682 -2.945271,-21.068468 -0.03779,-0.4237849 -1.252775,-21.219391 -0.82899,-21.257181 0.423785,-0.03779 2.907482,20.644683 2.945272,21.068468 0.03779,0.423785 1.252775,21.219392 0.828989,21.257181 z"
         transform="matrix(-1,0,0,1,69.349952,19.866476)" />
      <path
         sodipodi:type="star"
         style="fill:#557b83;fill-opacity:1;stroke-width:0.0513292"
         id="path19"
         inkscape:flatsided="false"
         sodipodi:sides="2"
         sodipodi:cx="38.551388"
         sodipodi:cy="10.244425"
         sodipodi:r1="21.246798"
         sodipodi:r2="1.0623399"
         sodipodi:arg1="1.4818596"
         sodipodi:arg2="3.0526559"
         inkscape:rounded="0.02"
         inkscape:randomized="0"
         d="m 40.438518,31.407249 c -0.423785,0.03779 -2.907482,-20.644682 -2.945271,-21.068468 -0.03779,-0.4237849 -1.252775,-21.219391 -0.82899,-21.257181 0.423785,-0.03779 2.907482,20.644683 2.945272,21.068468 0.03779,0.423785 1.252775,21.219392 0.828989,21.257181 z"
         transform="translate(-11.522641,19.866517)" />
      <path
         sodipodi:type="star"
         style="fill:#e5efc1;fill-opacity:1;stroke-width:0.0513292"
         id="path20"
         inkscape:flatsided="false"
         sodipodi:sides="2"
         sodipodi:cx="38.551388"
         sodipodi:cy="10.244425"
         sodipodi:r1="21.246798"
         sodipodi:r2="0.63740396"
         sodipodi:arg1="1.4818596"
         sodipodi:arg2="3.0526559"
         inkscape:rounded="0.02"
         inkscape:randomized="0"
         d="M 40.438518,31.407249 C 40.015071,31.445009 37.954263,10.724486 37.916503,10.301039 37.878743,9.8775918 36.24081,-10.88064 36.664257,-10.9184 c 0.423447,-0.03776 2.484256,20.682764 2.522016,21.106211 0.03776,0.423447 1.675692,21.181679 1.252245,21.219438 z"
         transform="matrix(-0.86420554,-0.00100725,0.07298455,0.86542882,61.567934,24.133297)" />
    </g>
    <g
       id="g25"
       transform="matrix(0.82623079,0.50169718,-0.62111783,0.94491,59.824419,-2.1308115)"
       style="display:inline">
      <path
         sodipodi:type="star"
         style="display:inline;fill:#39aea9;fill-opacity:1;stroke-width:0.0513292"
         id="path22"
         inkscape:flatsided="false"
         sodipodi:sides="2"
         sodipodi:cx="17.792948"
         sodipodi:cy="22.645571"
         sodipodi:r1="18.320726"
         sodipodi:r2="8.6107416"
         sodipodi:arg1="0.96850898"
         sodipodi:arg2="2.5393053"
         inkscape:rounded="0.11"
         inkscape:randomized="0"
         d="M 28.172167,37.742617 C 26.337215,39.004147 11.958865,29.358756 10.697336,27.523804 9.4358061,25.688852 5.5787761,8.8100537 7.4137282,7.5485241 9.2486803,6.2869946 23.62703,15.932385 24.88856,17.767337 c 1.261529,1.834952 5.118559,18.713751 3.283607,19.97528 z"
         inkscape:transform-center-x="-0.18536941"
         inkscape:transform-center-y="-5.0902404"
         transform="matrix(-1.4131653,0.75031595,0.92891616,1.235674,32.877604,-14.480927)" />
      <path
         sodipodi:type="star"
         style="fill:#557b83;fill-opacity:1;stroke-width:0.0513292"
         id="path23"
         inkscape:flatsided="false"
         sodipodi:sides="2"
         sodipodi:cx="38.551388"
         sodipodi:cy="10.244425"
         sodipodi:r1="21.246798"
         sodipodi:r2="1.0623399"
         sodipodi:arg1="1.4818596"
         sodipodi:arg2="3.0526559"
         inkscape:rounded="0.02"
         inkscape:randomized="0"
         d="m 40.438518,31.407249 c -0.423785,0.03779 -2.907482,-20.644682 -2.945271,-21.068468 -0.03779,-0.4237849 -1.252775,-21.219391 -0.82899,-21.257181 0.423785,-0.03779 2.907482,20.644683 2.945272,21.068468 0.03779,0.423785 1.252775,21.219392 0.828989,21.257181 z"
         transform="matrix(-1,0,0,1,69.349952,19.866476)" />
      <path
         sodipodi:type="star"
         style="fill:#557b83;fill-opacity:1;stroke-width:0.0513292"
         id="path24"
         inkscape:flatsided="false"
         sodipodi:sides="2"
         sodipodi:cx="38.551388"
         sodipodi:cy="10.244425"
         sodipodi:r1="21.246798"
         sodipodi:r2="1.0623399"
         sodipodi:arg1="1.4818596"
         sodipodi:arg2="3.0526559"
         inkscape:rounded="0.02"
         inkscape:randomized="0"
         d="m 40.438518,31.407249 c -0.423785,0.03779 -2.907482,-20.644682 -2.945271,-21.068468 -0.03779,-0.4237849 -1.252775,-21.219391 -0.82899,-21.257181 0.423785,-0.03779 2.907482,20.644683 2.945272,21.068468 0.03779,0.423785 1.252775,21.219392 0.828989,21.257181 z"
         transform="translate(-11.522641,19.866517)" />
      <path
         sodipodi:type="star"
         style="fill:#e5efc1;fill-opacity:1;stroke-width:0.0513292"
         id="path25"
         inkscape:flatsided="false"
         sodipodi:sides="2"
         sodipodi:cx="38.551388"
         sodipodi:cy="10.244425"
         sodipodi:r1="21.246798"
         sodipodi:r2="0.63740396"
         sodipodi:arg1="1.4818596"
         sodipodi:arg2="3.0526559"
         inkscape:rounded="0.02"
         inkscape:randomized="0"
         d="M 40.438518,31.407249 C 40.015071,31.445009 37.954263,10.724486 37.916503,10.301039 37.878743,9.8775918 36.24081,-10.88064 36.664257,-10.9184 c 0.423447,-0.03776 2.484256,20.682764 2.522016,21.106211 0.03776,0.423447 1.675692,21.181679 1.252245,21.219438 z"
         transform="matrix(-0.86420554,-0.00100725,0.07298455,0.86542882,61.567934,24.133297)" />
    </g>
  </g>
</svg>
